HIERARCHY
ROOT hip
{
  OFFSET 0 0 0
  CHANNELS 6 Xposition Yposition Zposition Zrotation Yrotation Xrotation
  JOINT abdomen
  {
    OFFSET 0 20.6881 -0.73152
    CHANNELS 3 Zrotation Xrotation Yrotation
    JOINT chest
    {
      OFFSET 0 11.7043 -0.48768
      CHANNELS 3 Zrotation Xrotation Yrotation
      JOINT neck
      {
        OFFSET 0 22.1894 -2.19456
        CHANNELS 3 Zrotation Xrotation Yrotation
        JOINT head
        {
          OFFSET -0.24384 7.07133 1.2192
          CHANNELS 3 Zrotation Xrotation Yrotation
          JOINT leftEye
          {
            OFFSET 4.14528 8.04674 8.04672
            CHANNELS 3 Zrotation Xrotation Yrotation
            End Site
            {
              OFFSET 1 0 0
            }
          }
          JOINT rightEye
          {
            OFFSET -3.6576 8.04674 8.04672
            CHANNELS 3 Zrotation Xrotation Yrotation
            End Site
            {
              OFFSET 1 0 0
            }
          }
        }
      }
      JOINT rCollar
      {
        OFFSET -2.68224 19.2634 -4.8768
        CHANNELS 3 Zrotation Xrotation Yrotation
        JOINT rShldr
        {
          OFFSET -8.77824 -1.95073 1.46304
          CHANNELS 3 Zrotation Xrotation Yrotation
          JOINT rForeArm
          {
            OFFSET -28.1742 -1.7115 0.48768
            CHANNELS 3 Zrotation Xrotation Yrotation
            JOINT rHand
            {
              OFFSET -22.5879 0.773209 7.07136
              CHANNELS 3 Zrotation Xrotation Yrotation
              JOINT rThumb1
              {
                OFFSET -1.2192 -0.487915 3.41376
                CHANNELS 3 Zrotation Xrotation Yrotation
                JOINT rThumb2
                {
                  OFFSET -3.37035 -0.52449 3.41376
                  CHANNELS 3 Zrotation Xrotation Yrotation
                  End Site
                  {
                    OFFSET -1.78271 -1.18214 1.43049
                  }
                }
              }
              JOINT rIndex1
              {
                OFFSET -7.75947 0.938293 5.60832
                CHANNELS 3 Zrotation Xrotation Yrotation
                JOINT rIndex2
                {
                  OFFSET -2.54057 -0.884171 1.56538
                  CHANNELS 3 Zrotation Xrotation Yrotation
                  End Site
                  {
                    OFFSET -1.62519 -0.234802 1.16502
                  }
                }
              }
              JOINT rMid1
              {
                OFFSET -8.24714 1.18213 3.41376
                CHANNELS 3 Zrotation Xrotation Yrotation
                JOINT rMid2
                {
                  OFFSET -3.10165 -0.590103 1.0647
                  CHANNELS 3 Zrotation Xrotation Yrotation
                  End Site
                  {
                    OFFSET -2.48547 -0.328903 0.83742
                  }
                }
              }
              JOINT rRing1
              {
                OFFSET -8.82822 0.546677 1.51678
                CHANNELS 3 Zrotation Xrotation Yrotation
                JOINT rRing2
                {
                  OFFSET -2.60934 -0.819778 -0.0198488
                  CHANNELS 3 Zrotation Xrotation Yrotation
                  End Site
                  {
                    OFFSET -2.33842 -0.294052 0.168128
                  }
                }
              }
              JOINT rPinky1
              {
                OFFSET -8.27202 -0.0477905 -0.4584
                CHANNELS 3 Zrotation Xrotation Yrotation
                JOINT rPinky2
                {
                  OFFSET -1.82734 -0.647385 -0.700984
                  CHANNELS 3 Zrotation Xrotation Yrotation
                  End Site
                  {
                    OFFSET -1.69225 -0.51767 -0.607171
                  }
                }
              }
            }
          }
        }
      }
      JOINT lCollar
      {
        OFFSET 2.68224 19.2634 -4.8768
        CHANNELS 3 Zrotation Xrotation Yrotation
        JOINT lShldr
        {
          OFFSET 8.77824 -1.95073 1.46304
          CHANNELS 3 Zrotation Xrotation Yrotation
          JOINT lForeArm
          {
            OFFSET 28.1742 -1.7115 0.48768
            CHANNELS 3 Zrotation Xrotation Yrotation
            JOINT lHand
            {
              OFFSET 22.5879 0.773209 7.07136
              CHANNELS 3 Zrotation Xrotation Yrotation
              JOINT lThumb1
              {
                OFFSET 1.2192 -0.487915 3.41376
                CHANNELS 3 Zrotation Xrotation Yrotation
                JOINT lThumb2
                {
                  OFFSET 3.37035 -0.52449 3.41376
                  CHANNELS 3 Zrotation Xrotation Yrotation
                  End Site
                  {
                    OFFSET 1.78271 -1.18214 1.43049
                  }
                }
              }
              JOINT lIndex1
              {
                OFFSET 7.75947 0.938293 5.60832
                CHANNELS 3 Zrotation Xrotation Yrotation
                JOINT lIndex2
                {
                  OFFSET 2.54057 -0.884171 1.56538
                  CHANNELS 3 Zrotation Xrotation Yrotation
                  End Site
                  {
                    OFFSET 1.62519 -0.234802 1.16502
                  }
                }
              }
              JOINT lMid1
              {
                OFFSET 8.24714 1.18213 3.41376
                CHANNELS 3 Zrotation Xrotation Yrotation
                JOINT lMid2
                {
                  OFFSET 3.10165 -0.590103 1.0647
                  CHANNELS 3 Zrotation Xrotation Yrotation
                  End Site
                  {
                    OFFSET 2.48547 -0.328903 0.83742
                  }
                }
              }
              JOINT lRing1
              {
                OFFSET 8.82822 0.546677 1.51678
                CHANNELS 3 Zrotation Xrotation Yrotation
                JOINT lRing2
                {
                  OFFSET 2.60934 -0.819778 -0.0198488
                  CHANNELS 3 Zrotation Xrotation Yrotation
                  End Site
                  {
                    OFFSET 2.33842 -0.294052 0.168128
                  }
                }
              }
              JOINT lPinky1
              {
                OFFSET 8.27202 -0.0477905 -0.4584
                CHANNELS 3 Zrotation Xrotation Yrotation
                JOINT lPinky2
                {
                  OFFSET 1.82734 -0.647385 -0.700984
                  CHANNELS 3 Zrotation Xrotation Yrotation
                  End Site
                  {
                    OFFSET 1.69225 -0.51767 -0.607171
                  }
                }
              }
            }
          }
        }
      }
    }
  }
  JOINT rButtock
  {
    OFFSET -8.77824 4.35084 1.2192
    CHANNELS 3 Zrotation Xrotation Yrotation
    JOINT rThigh
    {
      OFFSET 0 -1.70687 -2.19456
      CHANNELS 3 Zrotation Xrotation Yrotation
      JOINT rShin
      {
        OFFSET 0 -36.8199 0.73152
        CHANNELS 3 Zrotation Xrotation Yrotation
        JOINT rFoot
        {
          OFFSET 0.73152 -45.1104 -5.12064
          CHANNELS 3 Zrotation Xrotation Yrotation
          End Site
          {
            OFFSET -1.1221 -3.69964 12.103
          }
        }
      }
    }
  }
  JOINT lButtock
  {
    OFFSET 8.77824 4.35084 1.2192
    CHANNELS 3 Zrotation Xrotation Yrotation
    JOINT lThigh
    {
      OFFSET 0 -1.70687 -2.19456
      CHANNELS 3 Zrotation Xrotation Yrotation
      JOINT lShin
      {
        OFFSET 0 -36.8199 0.73152
        CHANNELS 3 Zrotation Xrotation Yrotation
        JOINT lFoot
        {
          OFFSET -0.73152 -45.1104 -5.12064
          CHANNELS 3 Zrotation Xrotation Yrotation
          End Site
          {
            OFFSET 1.1221 -3.69964 12.103
          }
        }
      }
    }
  }
}
MOTION
Frames:	4
Frame Time:	0.00833333
55.8541 84.5501 29.2845 0.0 0.0 0.0 -0.735047 -0.00369205 -0.0206959 -0.20266 -0.00499193 -0.0351133 3.77078e-15 1.59028e-15 -1.2424e-16 1.12748e-14 9.54166e-15 -3.64956e-16 -0.0 0.0 0.0 -0.0 0.0 0.0 1.98657e-15 -1.94126e-18 4.96962e-17 4.09316e-14 8.69683e-17 0.0 6.80341e-13 -2.0117e-13 -2.54444e-14 7.76085e-12 2.05469e-13 -2.29e-13 1.83045e-11 5.77737e-15 -5.47055e-13 3.15956e-11 9.54166e-15 -9.63708e-13 1.83093e-11 5.56597e-15 -5.56597e-13 7.73091 5.47488 0.417314 1.83031e-11 4.96962e-15 -5.47055e-13 2.90554 0.965183 0.102902 1.83113e-11 5.66536e-15 -5.55007e-13 10.2786 0.731801 0.0259123 1.82975e-11 9.93923e-15 -5.56597e-13 2.22167 -0.733487 -0.20892 1.79046e-15 -2.32951e-18 -1.49089e-16 3.78087e-14 -1.86361e-17 -2.18663e-15 6.80639e-13 2.0276e-13 -3.18055e-14 7.77017e-12 -2.01145e-13 -2.22639e-13 1.833e-11 2.65114e-15 -5.62958e-13 3.16652e-11 3.18055e-15 -9.60528e-13 1.83279e-11 2.78299e-15 -5.53417e-13 -7.73091 5.47488 -0.417314 1.83302e-11 2.08724e-15 -5.59778e-13 -2.90554 0.965183 -0.102902 1.8329e-11 2.38542e-15 -5.56597e-13 -10.2786 0.731801 -0.0259123 1.83335e-11 5.56597e-15 -5.59778e-13 -2.22167 -0.733487 0.20892 -2.03217e-16 0.0 -3.88251e-19 -0.0341435 -2.1313 -0.01837 -0.00890164 -1.69205 -0.0750818 -0.52263 3.82302 0.138273 2.03217e-16 0.0 3.88251e-19 -1.08366 -4.91187 0.0910344 0.00129287 3.34448 -0.00264261 0.531476 1.56719 -0.0928775
53.8292 82.7146 22.7355 -179.289 -17.0312 -168.309 -0.752223 0.542778 2.11926 -0.279019 0.0963543 0.57637 -4.19979 0.426439 -2.49877 3.93584 -0.809124 -3.95553 -0.0 0.0 0.0 -0.0 0.0 0.0 -2.86015e-14 4.38953e-14 8.974e-14 5.05211 -8.8956 14.8303 -8.66857 -5.55062 11.3433 0.000501596 0.804445 0.11309 -5.82472e-10 -2.29418e-09 -4.11596e-10 -1.00699e-09 -3.9611e-09 -7.0911e-10 -5.82466e-10 -2.29418e-09 -4.11604e-10 7.73091 5.47488 0.417314 -5.82471e-10 -2.29418e-09 -4.11596e-10 2.90554 0.965183 0.102902 -5.82465e-10 -2.29418e-09 -4.11601e-10 10.2786 0.731801 0.0259123 -5.82477e-10 -2.29417e-09 -4.11601e-10 2.22167 -0.733487 -0.20892 -2.87851e-14 4.38896e-14 8.95253e-14 -20.121 6.2219 0.621482 4.86396 -2.35544 -7.43273 -0.000354277 0.419828 -0.0589974 2.11303e-11 -5.65496e-10 8.17726e-10 3.82496e-11 -9.80416e-10 1.41533e-09 2.11271e-11 -5.65496e-10 8.17734e-10 -7.73091 5.47488 -0.417314 2.11305e-11 -5.65497e-10 8.17728e-10 -2.90554 0.965183 -0.102902 2.11274e-11 -5.65496e-10 8.17732e-10 -10.2786 0.731801 -0.0259123 2.11339e-11 -5.65493e-10 8.17728e-10 -2.22167 -0.733487 0.20892 -2.03217e-16 0.0 -3.88251e-19 0.774858 -8.72346 -1.5288 0.0139736 5.6722 0.0753289 -0.723807 0.995748 -3.73691 2.03217e-16 0.0 3.88251e-19 1.63072 -7.48197 -0.665453 -0.0386099 12.1058 -0.188876 0.496485 2.62056 -5.49493
53.9885 82.6555 22.2995 -179.03 -17.1294 -168.483 -0.829914 1.09125 4.38977 -0.338111 0.241318 1.22558 -8.59029 0.893676 -5.14256 7.96085 -1.68846 -8.14455 -0.0 0.0 0.0 -0.0 0.0 0.0 -6.32322e-14 9.37315e-14 1.89917e-13 15.2868 -16.2627 31.4908 -15.5096 -10.7306 23.7065 -0.00290519 1.5818 0.222499 -1.23754e-09 -4.77425e-09 -8.52887e-10 -2.13929e-09 -8.24265e-09 -1.46928e-09 -1.23754e-09 -4.77426e-09 -8.52895e-10 7.73091 5.47488 0.417314 -1.23754e-09 -4.77425e-09 -8.52887e-10 2.90554 0.965183 0.102902 -1.23753e-09 -4.77425e-09 -8.5289e-10 10.2786 0.731801 0.0259123 -1.23755e-09 -4.77425e-09 -8.52888e-10 2.22167 -0.733487 -0.20892 -6.34008e-14 9.372e-14 1.89684e-13 -41.539 12.8101 1.265 9.34269 -4.70973 -15.3233 0.000216455 0.868721 -0.12209 3.22356e-11 -1.17976e-09 1.70935e-09 5.93267e-11 -2.04532e-09 2.95848e-09 3.22311e-11 -1.17976e-09 1.70936e-09 -7.73091 5.47488 -0.417314 3.2236e-11 -1.17976e-09 1.70935e-09 -2.90554 0.965183 -0.102902 3.22308e-11 -1.17976e-09 1.70936e-09 -10.2786 0.731801 -0.0259123 3.22394e-11 -1.17975e-09 1.70935e-09 -2.22167 -0.733487 0.20892 -2.03217e-16 0.0 -3.88251e-19 1.22945 -15.686 -3.19968 -0.00485699 13.4564 0.239799 -1.34895 -1.95229 -7.83482 2.03217e-16 0.0 3.88251e-19 4.40767 -10.1541 -1.46738 -0.0141568 21.3002 -0.403152 0.660838 3.61464 -11.1851
54.1973 82.6405 21.8233 -178.509 -17.3441 -168.833 -0.908793 1.62663 6.40147 -0.438227 0.298914 1.79936 -12.4881 1.26959 -7.49795 11.4748 -2.38115 -11.8758 -0.0 0.0 0.0 -0.0 0.0 0.0 -8.97776e-14 1.3169e-13 2.69121e-13 28.0557 -19.4803 47.3993 -19.6823 -14.0345 35.06 -0.0080292 2.4133 0.339538 -1.78402e-09 -6.88254e-09 -1.23369e-09 -3.08415e-09 -1.18833e-08 -2.1254e-09 -1.78402e-09 -6.88255e-09 -1.2337e-09 7.73091 5.47488 0.417314 -1.78402e-09 -6.88254e-09 -1.23369e-09 2.90554 0.965183 0.102902 -1.78402e-09 -6.88254e-09 -1.23369e-09 10.2786 0.731801 0.0259123 -1.78403e-09 -6.88254e-09 -1.23369e-09 2.22167 -0.733487 -0.20892 -8.99362e-14 1.31673e-13 2.68874e-13 -60.7869 18.6567 1.9563 12.7998 -6.59168 -22.4355 0.00153148 1.25948 -0.17703 2.67308e-11 -1.69649e-09 2.4543e-09 5.14184e-11 -2.94125e-09 4.24791e-09 2.67253e-11 -1.69649e-09 2.45431e-09 -7.73091 5.47488 -0.417314 2.67312e-11 -1.69649e-09 2.4543e-09 -2.90554 0.965183 -0.102902 2.67243e-11 -1.69649e-09 2.45431e-09 -10.2786 0.731801 -0.0259123 2.67347e-11 -1.69649e-09 2.4543e-09 -2.22167 -0.733487 0.20892 -2.03217e-16 0.0 -3.88251e-19 1.28054 -21.846 -4.84532 -0.0618311 20.4002 0.400071 -2.26801 -4.5591 -11.5219 2.03217e-16 0.0 3.88251e-19 6.85123 -12.6145 -2.21424 0.0751499 29.6272 -0.631287 1.01392 4.57208 -16.3353
